# xmcd
#
# Track frame offsets:
#	150
#	28797
#	59150
#	81132
#	101747
#	127587
#	151255
#	176057
#	208355
#	237107
#
# Disc length: 3486 seconds
#
# Revision: 1
# Processed by: cddbd v1.5.2PL0 Copyright (c) Steve Scherf et al.
# Submitted via: EZCDAudioConverter 8.0.2.1
#
DISCID=850d9c0a
DTITLE=Vũ Khanh - Cây Đàn Bỏ Quên
DYEAR=1988
DGENRE=
TTITLE0=Lạnh trọn đêm mưa
TTITLE1=Tình phụ
TTITLE2=Cây Đàn Bỏ Quên
TTITLE3=Co hàng cà phê
TTITLE4=Áo lụa Hà Đông
TTITLE5=Cô hàng nước
TTITLE6=Nỗi lòng
TTITLE7=Vì tôi là linh mục
TTITLE8=Chờ người
TTITLE9=Tình khúc buồn
EXTD=
EXTT0=
EXTT1=
EXTT2=
EXTT3=
EXTT4=
EXTT5=
EXTT6=
EXTT7=
EXTT8=
EXTT9=
PLAYORDER=
